<?xml version="1.0" encoding="UTF-8"?>
<svg version="1.1" xmlns="http://www.w3.org/2000/svg" width="225" height="225">
<path d="M0 0 C17.16 0 34.32 0 52 0 C52 8.25 52 16.5 52 25 C59.85342779 24.96041007 59.85342779 24.96041007 67.70678711 24.90991211 C68.6788208 24.90741455 69.65085449 24.90491699 70.65234375 24.90234375 C72.15269165 24.89448853 72.15269165 24.89448853 73.68334961 24.88647461 C76 25 76 25 77 26 C77.09311889 27.50418739 77.11746028 29.01271356 77.11352539 30.51977539 C77.11340454 31.49418579 77.11328369 32.46859619 77.11315918 33.47253418 C77.10804321 34.50382446 77.10292725 35.53511475 77.09765625 36.59765625 C77.09664917 37.54024292 77.09564209 38.48282959 77.09460449 39.45397949 C77.08935477 42.99016529 77.07539364 46.52633381 77.0625 50.0625 C77.041875 57.961875 77.02125 65.86125 77 74 C101.42 74 125.84 74 151 74 C151 82.25 151 90.5 151 99 C159.25 99 167.5 99 176 99 C176 116.16 176 133.32 176 151 C167.75 151 159.5 151 151 151 C150.67 134.5 150.34 118 150 101 C142.08 101 134.16 101 126 101 C126.33 102.32 126.66 103.64 127 105 C127.09232266 107.15950924 127.12791111 109.32167299 127.12939453 111.4831543 C127.13202301 112.44791939 127.13202301 112.44791939 127.13470459 113.43217468 C127.13910845 115.56288347 127.136183 117.69350907 127.1328125 119.82421875 C127.13348767 121.32802852 127.13445947 122.83183818 127.13571167 124.33564758 C127.13718808 127.50233998 127.13504223 130.66900424 127.13037109 133.83569336 C127.12477534 137.81577314 127.12797478 141.79578454 127.13382339 145.77586174 C127.15622548 163.87617103 126.94485541 181.91916598 126 200 C122.92487663 200.01545288 119.84975323 200.03085322 116.77462769 200.04586792 C114.3947413 200.05819074 112.01486934 200.07337103 109.63500977 200.09008789 C108.62237061 200.09258545 107.60973145 200.09508301 106.56640625 200.09765625 C105.00321655 200.10551147 105.00321655 200.10551147 103.40844727 200.11352539 C101 200 101 200 100 199 C99.90695982 197.52645652 99.88253735 196.04849409 99.88647461 194.57202148 C99.88658791 193.16067177 99.88658791 193.16067177 99.88670349 191.72080994 C99.89444542 190.18645042 99.89444542 190.18645042 99.90234375 188.62109375 C99.9037587 187.57929459 99.90517365 186.53749542 99.90663147 185.46412659 C99.9122492 182.12188906 99.9248047 178.77971743 99.9375 175.4375 C99.94251272 173.17773534 99.94707602 170.91796963 99.95117188 168.65820312 C99.96137544 163.10542266 99.98094736 157.55278548 100 152 C92.74 151.67 85.48 151.34 78 151 C77.35459685 164.55346625 76.87757822 178.02520552 77.03710938 191.59375 C77.04548828 192.55152344 77.05386719 193.50929687 77.0625 194.49609375 C77.07410156 195.34357178 77.08570312 196.1910498 77.09765625 197.06420898 C77 199 77 199 76 200 C74.15840977 200.09959621 72.31303033 200.13080411 70.46875 200.1328125 C69.34855469 200.13410156 68.22835937 200.13539063 67.07421875 200.13671875 C65.89472656 200.13285156 64.71523437 200.12898437 63.5 200.125 C61.73076172 200.13080078 61.73076172 200.13080078 59.92578125 200.13671875 C58.24548828 200.13478516 58.24548828 200.13478516 56.53125 200.1328125 C55.49548828 200.13168457 54.45972656 200.13055664 53.39257812 200.12939453 C51 200 51 200 50 199 C49.92435164 197.5004603 49.91694785 195.99739971 49.9375 194.49609375 C49.95006836 193.05943359 49.95006836 193.05943359 49.96289062 191.59375 C49.97513672 190.5521875 49.98738281 189.510625 50 188.4375 C50.08361301 175.92595333 49.59512884 163.49770555 49 151 C41.74 151 34.48 151 27 151 C27.01160156 154.45339844 27.02320313 157.90679687 27.03515625 161.46484375 C27.04294569 164.79418852 27.04902309 168.12353229 27.05493164 171.45288086 C27.05997333 173.77417451 27.06680651 176.09546497 27.07543945 178.41674805 C27.08751225 181.74528795 27.09322979 185.07378602 27.09765625 188.40234375 C27.10281754 189.44712387 27.10797882 190.49190399 27.11329651 191.56834412 C27.11337204 192.52926468 27.11344757 193.49018524 27.11352539 194.48022461 C27.115746 195.33071884 27.11796661 196.18121307 27.12025452 197.05747986 C27 199 27 199 26 200 C24.14630389 200.08737645 22.28932459 200.10698153 20.43359375 200.09765625 C19.30888672 200.09443359 18.18417969 200.09121094 17.02539062 200.08789062 C15.84138672 200.07951172 14.65738281 200.07113281 13.4375 200.0625 C12.24962891 200.05798828 11.06175781 200.05347656 9.83789062 200.04882812 C6.89187774 200.03699675 3.94596319 200.02051287 1 200 C0.0743939 182.89202876 0.11478156 166.11422323 1 149 C8.92 148.67 16.84 148.34 25 148 C25 132.82 25 117.64 25 102 C0.745 101.505 0.745 101.505 -24 101 C-24 83.84 -24 66.68 -24 49 C-15.75 49 -7.5 49 1 49 C0.67597905 41.10501019 0.67597905 41.10501019 0.34179688 33.21044922 C-0.09083619 22.11478448 0 11.13883699 0 0 Z " fill="#D28002" transform="translate(49,0)"/>
<path d="M0 0 C17.16 0 34.32 0 52 0 C52 8.25 52 16.5 52 25 C59.85342779 24.96041007 59.85342779 24.96041007 67.70678711 24.90991211 C68.6788208 24.90741455 69.65085449 24.90491699 70.65234375 24.90234375 C72.15269165 24.89448853 72.15269165 24.89448853 73.68334961 24.88647461 C76 25 76 25 77 26 C77.09822116 27.46275405 77.12798364 28.93019289 77.12939453 30.39624023 C77.13254669 31.33068466 77.13569885 32.26512909 77.13894653 33.22789001 C77.13591019 34.75283836 77.13591019 34.75283836 77.1328125 36.30859375 C77.13376923 37.34564957 77.13472595 38.38270538 77.13571167 39.45118713 C77.13639369 41.64950623 77.13453791 43.84782732 77.13037109 46.04614258 C77.12502854 49.41947949 77.1303126 52.79268292 77.13671875 56.16601562 C77.13605787 58.2968753 77.13477649 60.42773488 77.1328125 62.55859375 C77.13483673 63.57320175 77.13686096 64.58780975 77.13894653 65.63316345 C77.13421829 67.03955833 77.13421829 67.03955833 77.12939453 68.47436523 C77.12859894 69.30185776 77.12780334 70.12935028 77.12698364 70.98191833 C77 73 77 73 76 75 C67.75 75 59.5 75 51 75 C51 58.5 51 42 51 25 C34.5 25 18 25 1 25 C-1.63733873 17.08798382 0 8.33999734 0 0 Z " fill="#9B5E01" transform="translate(49,0)"/>
<path d="M0 0 C8.58 0 17.16 0 26 0 C26 8.25 26 16.5 26 25 C34.25 25 42.5 25 51 25 C51 42.16 51 59.32 51 77 C42.75 77 34.5 77 26 77 C25.67 60.5 25.34 44 25 27 C17.41 27 9.82 27 2 27 C0.22509454 25.22509454 0.76500027 22.62215098 0.68359375 20.21484375 C0.64548584 19.16159912 0.60737793 18.10835449 0.56811523 17.02319336 C0.52501221 15.67491455 0.48190918 14.32663574 0.4375 12.9375 C0.293125 8.668125 0.14875 4.39875 0 0 Z " fill="#9A5E03" transform="translate(174,74)"/>
<path d="M0 0 C1.5631897 0.00785522 1.5631897 0.00785522 3.15795898 0.01586914 C4.28266602 0.0190918 5.40737305 0.02231445 6.56616211 0.02563477 C7.75016602 0.03401367 8.93416992 0.04239258 10.15405273 0.05102539 C11.34192383 0.05553711 12.52979492 0.06004883 13.75366211 0.06469727 C16.69967499 0.07652864 19.64558954 0.09301252 22.59155273 0.11352539 C22.78740627 4.09232767 22.97183944 8.07157695 23.15405273 12.05102539 C23.21012695 13.18733398 23.26620117 14.32364258 23.32397461 15.49438477 C23.37231445 16.57397461 23.4206543 17.65356445 23.47045898 18.76586914 C23.51759033 19.76610107 23.56472168 20.76633301 23.61328125 21.796875 C23.59155273 24.11352539 23.59155273 24.11352539 22.59155273 25.11352539 C20.74996251 25.2131216 18.90458306 25.2443295 17.06030273 25.24633789 C15.94010742 25.24762695 14.81991211 25.24891602 13.66577148 25.25024414 C12.4862793 25.24637695 11.30678711 25.24250977 10.09155273 25.23852539 C8.32231445 25.24432617 8.32231445 25.24432617 6.51733398 25.25024414 C4.83704102 25.24831055 4.83704102 25.24831055 3.12280273 25.24633789 C2.08704102 25.24520996 1.0512793 25.24408203 -0.01586914 25.24291992 C-2.40844727 25.11352539 -2.40844727 25.11352539 -3.40844727 24.11352539 C-3.5077688 22.41793813 -3.53924733 20.71826792 -3.54125977 19.01977539 C-3.54319336 17.47483398 -3.54319336 17.47483398 -3.54516602 15.89868164 C-3.54129883 14.81458008 -3.53743164 13.73047852 -3.53344727 12.61352539 C-3.53731445 11.52942383 -3.54118164 10.44532227 -3.54516602 9.32836914 C-3.54387695 8.2984082 -3.54258789 7.26844727 -3.54125977 6.20727539 C-3.54013184 5.25530273 -3.53900391 4.30333008 -3.5378418 3.32250977 C-3.35575921 0.2140508 -3.12076202 0.1471013 0 0 Z " fill="#312F3A" transform="translate(102.408447265625,174.886474609375)"/>
<path d="M0 0 C1.5631897 0.00785522 1.5631897 0.00785522 3.15795898 0.01586914 C4.17059814 0.0183667 5.1832373 0.02086426 6.2265625 0.0234375 C7.52263428 0.0325415 8.81870605 0.04164551 10.15405273 0.05102539 C16.31061523 0.08196289 16.31061523 0.08196289 22.59155273 0.11352539 C22.59155273 8.36352539 22.59155273 16.61352539 22.59155273 25.11352539 C18.48717773 25.13415039 14.38280273 25.15477539 10.15405273 25.17602539 C8.20994507 25.1896814 8.20994507 25.1896814 6.2265625 25.20361328 C4.70760376 25.20735962 4.70760376 25.20735962 3.15795898 25.21118164 C1.59476929 25.21903687 1.59476929 25.21903687 0 25.22705078 C-2.40844727 25.11352539 -2.40844727 25.11352539 -3.40844727 24.11352539 C-3.5077688 22.41793813 -3.53924733 20.71826792 -3.54125977 19.01977539 C-3.54319336 17.47483398 -3.54319336 17.47483398 -3.54516602 15.89868164 C-3.54129883 14.81458008 -3.53743164 13.73047852 -3.53344727 12.61352539 C-3.53731445 11.52942383 -3.54118164 10.44532227 -3.54516602 9.32836914 C-3.54387695 8.2984082 -3.54258789 7.26844727 -3.54125977 6.20727539 C-3.54013184 5.25530273 -3.53900391 4.30333008 -3.5378418 3.32250977 C-3.35575921 0.2140508 -3.12076202 0.1471013 0 0 Z " fill="#35323D" transform="translate(152.408447265625,174.886474609375)"/>
<path d="M0 0 C12.87 0.495 12.87 0.495 26 1 C27.12694932 8.88864522 27.12694932 8.88864522 27.1328125 12.3671875 C27.13474609 13.47707031 27.13474609 13.47707031 27.13671875 14.609375 C27.13285156 15.35703125 27.12898438 16.1046875 27.125 16.875 C27.13080078 18.03128906 27.13080078 18.03128906 27.13671875 19.2109375 C27.12674989 24.87325011 27.12674989 24.87325011 26 26 C24.14630389 26.08737645 22.28932459 26.10698153 20.43359375 26.09765625 C19.42095459 26.09515869 18.40831543 26.09266113 17.36499023 26.09008789 C16.06891846 26.08098389 14.77284668 26.07187988 13.4375 26.0625 C9.333125 26.041875 5.22875 26.02125 1 26 C0.67 17.42 0.34 8.84 0 0 Z " fill="#343341" transform="translate(49,174)"/>
<path d="M0 0 C8.25 0 16.5 0 25 0 C25 8.25 25 16.5 25 25 C16.75 25 8.5 25 0 25 C0 16.75 0 8.5 0 0 Z " fill="#323340" transform="translate(50,50)"/>
<path d="M0 0 C8.25 0 16.5 0 25 0 C25 8.25 25 16.5 25 25 C16.75 25 8.5 25 0 25 C0 16.75 0 8.5 0 0 Z M1 1 C1 3.64 1 6.28 1 9 C1.33 7.68 1.66 6.36 2 5 C3.32 4.67 4.64 4.34 6 4 C6 3.34 6 2.68 6 2 C6.66 2 7.32 2 8 2 C8 3.32 8 4.64 8 6 C7.34 6 6.68 6 6 6 C6 7.32 6 8.64 6 10 C6.66 10 7.32 10 8 10 C8 11.65 8 13.3 8 15 C8.33 15 8.66 15 9 15 C9.33 17.64 9.66 20.28 10 23 C14.29 23 18.58 23 23 23 C23 15.74 23 8.48 23 1 C15.74 1 8.48 1 1 1 Z " fill="#3D3231" transform="translate(50,50)"/>
<path d="M0 0 C16.83 0 33.66 0 51 0 C51 16.17 51 32.34 51 49 C50.67 49 50.34 49 50 49 C50 33.49 50 17.98 50 2 C39.2028125 1.9071875 39.2028125 1.9071875 28.1875 1.8125 C25.91770264 1.78518799 23.64790527 1.75787598 21.30932617 1.72973633 C19.51221245 1.72097531 17.71509279 1.71333046 15.91796875 1.70703125 C14.98327759 1.69168335 14.04858643 1.67633545 13.08557129 1.66052246 C12.19261353 1.66015991 11.29965576 1.65979736 10.37963867 1.65942383 C9.60464523 1.65276199 8.82965179 1.64610016 8.03117371 1.63923645 C5.46074271 2.09577929 4.58527211 2.96479286 3 5 C2.49945249 7.11615844 2.49945249 7.11615844 2.48828125 9.44921875 C2.45516846 10.21322998 2.42205566 10.97724121 2.38793945 11.7644043 C2.36304443 12.72902588 2.33814941 13.69364746 2.3125 14.6875 C2.209375 17.760625 2.10625 20.83375 2 24 C9.92 24 17.84 24 26 24 C26 24.33 26 24.66 26 25 C17.75 25 9.5 25 1 25 C1 32.92 1 40.84 1 49 C0.67 49 0.34 49 0 49 C0 32.83 0 16.66 0 0 Z " fill="#C9841B" transform="translate(49,25)"/>
<path d="M0 0 C12.87 0.495 12.87 0.495 26 1 C25.67 1.99 25.34 2.98 25 4 C13.615 3.505 13.615 3.505 2 3 C2.33 5.31 2.66 7.62 3 10 C3.121786 14.67171108 3.04451971 19.32543039 3 24 C10.26 24.33 17.52 24.66 25 25 C24.505 15.595 24.505 15.595 24 6 C24.66 5.67 25.32 5.34 26 5 C27.29521242 8.88563725 27.14503464 12.57800269 27.125 16.625 C27.13080078 17.80835938 27.13080078 17.80835938 27.13671875 19.015625 C27.12665394 24.87334606 27.12665394 24.87334606 26 26 C24.14630389 26.08737645 22.28932459 26.10698153 20.43359375 26.09765625 C19.42095459 26.09515869 18.40831543 26.09266113 17.36499023 26.09008789 C16.06891846 26.08098389 14.77284668 26.07187988 13.4375 26.0625 C9.333125 26.041875 5.22875 26.02125 1 26 C0.67 17.42 0.34 8.84 0 0 Z " fill="#3C2F24" transform="translate(49,174)"/>
<path d="M0 0 C0.33 0 0.66 0 1 0 C1 7.26 1 14.52 1 22 C8.92 21.67 16.84 21.34 25 21 C25.33 21.99 25.66 22.98 26 24 C21.85418113 24.02886751 17.70838784 24.04675327 13.5625 24.0625 C11.78649414 24.07506836 11.78649414 24.07506836 9.97460938 24.08789062 C8.84990234 24.09111328 7.72519531 24.09433594 6.56640625 24.09765625 C5.00321655 24.10551147 5.00321655 24.10551147 3.40844727 24.11352539 C1 24 1 24 0 23 C-0.08713831 21.29227642 -0.10700007 19.58101351 -0.09765625 17.87109375 C-0.09443359 16.83662109 -0.09121094 15.80214844 -0.08789062 14.73632812 C-0.07951172 13.64771484 -0.07113281 12.55910156 -0.0625 11.4375 C-0.05798828 10.34501953 -0.05347656 9.25253906 -0.04882812 8.12695312 C-0.03699826 5.41791505 -0.02051543 2.70898401 0 0 Z " fill="#C07F23" transform="translate(50,151)"/>
<path d="M0 0 C0.66 0 1.32 0 2 0 C2.33 6.6 2.66 13.2 3 20 C10.59 20.33 18.18 20.66 26 21 C26 21.33 26 21.66 26 22 C21.85418113 22.02886751 17.70838784 22.04675327 13.5625 22.0625 C11.78649414 22.07506836 11.78649414 22.07506836 9.97460938 22.08789062 C8.84990234 22.09111328 7.72519531 22.09433594 6.56640625 22.09765625 C5.00321655 22.10551147 5.00321655 22.10551147 3.40844727 22.11352539 C1 22 1 22 0 21 C-0.08685603 19.43827255 -0.10702219 17.87270656 -0.09765625 16.30859375 C-0.09443359 15.36435547 -0.09121094 14.42011719 -0.08789062 13.44726562 C-0.07951172 12.45404297 -0.07113281 11.46082031 -0.0625 10.4375 C-0.05798828 9.44041016 -0.05347656 8.44332031 -0.04882812 7.41601562 C-0.03700007 4.94395151 -0.02051849 2.47200482 0 0 Z " fill="#1A1922" transform="translate(149,178)"/>
<path d="M0 0 C2.58837761 3.88256641 2.25793118 7.13223217 2.1875 11.625 C2.18685547 12.41390625 2.18621094 13.2028125 2.18554688 14.015625 C2.1403612 19.8596388 2.1403612 19.8596388 1 21 C-0.85369611 21.08737645 -2.71067541 21.10698153 -4.56640625 21.09765625 C-5.69111328 21.09443359 -6.81582031 21.09121094 -7.97460938 21.08789062 C-9.15861328 21.07951172 -10.34261719 21.07113281 -11.5625 21.0625 C-12.75037109 21.05798828 -13.93824219 21.05347656 -15.16210938 21.04882812 C-18.10812226 21.03699675 -21.05403681 21.02051287 -24 21 C-24 20.67 -24 20.34 -24 20 C-16.08 20 -8.16 20 0 20 C-0.36841545 13.79176477 -0.36841545 13.79176477 -0.74829102 7.58422852 C-0.79139404 6.81522217 -0.83449707 6.04621582 -0.87890625 5.25390625 C-0.9260376 4.46314697 -0.97316895 3.6723877 -1.02172852 2.85766602 C-1 1 -1 1 0 0 Z " fill="#1C1B22" transform="translate(74,179)"/>
<path d="M0 0 C1.32 0 2.64 0 4 0 C4.33 0.99 4.66 1.98 5 3 C4.34 3 3.68 3 3 3 C3 3.66 3 4.32 3 5 C-4.59 5 -12.18 5 -20 5 C-20.33 4.34 -20.66 3.68 -21 3 C-11.1 2.505 -11.1 2.505 -1 2 C-0.67 1.34 -0.34 0.68 0 0 Z " fill="#DFAB0A" transform="translate(147,146)"/>
<path d="M0 0 C0.66 0 1.32 0 2 0 C2 6.27 2 12.54 2 19 C2.99 19 3.98 19 5 19 C4.67 20.32 4.34 21.64 4 23 C2.68 22.67 1.36 22.34 0 22 C0 14.74 0 7.48 0 0 Z " fill="#C13507" transform="translate(49,0)"/>
<path d="M0 0 C0.33 0 0.66 0 1 0 C1 4.62 1 9.24 1 14 C-7.58 14 -16.16 14 -25 14 C-25 13.67 -25 13.34 -25 13 C-17.74 13 -10.48 13 -3 13 C-3 11.35 -3 9.7 -3 8 C-2.34 8.66 -1.68 9.32 -1 10 C-0.67 6.7 -0.34 3.4 0 0 Z " fill="#C6801B" transform="translate(125,160)"/>
<path d="M0 0 C0.33 0.66 0.66 1.32 1 2 C1.66 1.67 2.32 1.34 3 1 C4.7404417 0.91550372 6.48409722 0.89276976 8.2265625 0.90234375 C9.2578125 0.90556641 10.2890625 0.90878906 11.3515625 0.91210938 C12.97191406 0.92467773 12.97191406 0.92467773 14.625 0.9375 C16.25695312 0.94426758 16.25695312 0.94426758 17.921875 0.95117188 C20.61463789 0.96298224 23.30729188 0.97945222 26 1 C26 1.33 26 1.66 26 2 C19.07 2 12.14 2 5 2 C5 2.66 5 3.32 5 4 C3.02 4.33 1.04 4.66 -1 5 C-0.67 3.35 -0.34 1.7 0 0 Z " fill="#EEB301" transform="translate(71,149)"/>
<path d="M0 0 C0.33 0 0.66 0 1 0 C1.25470125 3.60284066 1.47435483 7.20698109 1.6875 10.8125 C1.76033203 11.83666016 1.83316406 12.86082031 1.90820312 13.91601562 C1.96298828 14.89892578 2.01777344 15.88183594 2.07421875 16.89453125 C2.13182373 17.80050049 2.18942871 18.70646973 2.2487793 19.63989258 C2 22 2 22 0.49536133 23.8190918 C0.00189209 24.2087915 -0.49157715 24.59849121 -1 25 C-1.66 24.34 -2.32 23.68 -3 23 C-2.625 20.375 -2.625 20.375 -2 18 C-1.34 18 -0.68 18 0 18 C0 12.06 0 6.12 0 0 Z " fill="#CC810F" transform="translate(174,79)"/>
<path d="M0 0 C1.32 0 2.64 0 4 0 C4.33 0.99 4.66 1.98 5 3 C4.34 3 3.68 3 3 3 C3 3.66 3 4.32 3 5 C1.35 5 -0.3 5 -2 5 C-1.01 4.34 -0.02 3.68 1 3 C0.34 2.34 -0.32 1.68 -1 1 C-0.67 0.67 -0.34 0.34 0 0 Z " fill="#DF9A01" transform="translate(147,146)"/>
</svg>
